<?xml version="1.0" encoding="UTF-8"?><svg id="a" xmlns="http://www.w3.org/2000/svg" viewBox="0 0 245.76 245.76"><defs><style>.b{fill:#fff;}</style></defs><path class="b" d="M245.76,0v245.76H0V0h245.76ZM144.1,53.23c-20.58-11.81-45-13.37-67.26-5.28-22.22,8.08-39.57,26.81-46.39,49.39l41.96,1.2-21.83,23.63c-.05.55.33.99.86,1.06,5.42.19,10.85-.85,15.77,1.97,11.67,6.68,5.42,21.95-6.67,22.97l-36.94.22c-.2.17-.31.38-.34.64-.12.98,1.64,5.99,2.1,7.24,9.11,25.12,33.37,43.79,59.09,49.52,35.95,8.02,72.52-7.26,91.54-38.56.06-.49-.02-.31-.35-.36-2.96-.39-8.09.35-11.26.49-2.55.11-5.1-.13-7.63.22-14.86,18.06-38.91,26.78-62.12,23.95-19.13-2.33-37.1-12.79-48.34-28.38,7.13-.53,14.41.71,21.39-1.15,18.79-5,28.97-27.51,16.01-43.44l-4.3-4.08c4.68-4.98,9.62-9.81,13.79-15.23,3.5-6.21.08-13.9-6.98-15.08l-32.94-.27c17.83-25.25,53.7-33.36,80.9-18.44l9.97-12.24ZM96.87,121.8h19.3c11.67-14.5,23.89-28.58,35.6-43.04,1.89-2.33,7.05-8.11,7.42-10.8.17-1.2.03-2.21-.5-3.29s-5.38-5.66-6.5-6.21c-1.06-.52-2.29-.41-3.21.37-1.34,1.14-3.79,4.48-5.11,6.04-11.15,13.14-22.14,26.49-33.09,39.8-4.67,5.68-9.25,11.45-13.91,17.14ZM158.37,85.12h-6.59l-.12.74,3.66,9.18c-2.02,3.06-5.08,5.98-7.03,9.02-.49.76-.61,1.09.47,1.22.66.08,5.82.09,6.08-.06l2.73-4.1c.41-.21,1.13-2.03,1.51-1.84.54.26,1.72,5.11,2.04,5.99h6.83c.17,0,.49-.53.32-.78l-3.76-9.59,6.89-9.2-.33-.56h-6.59l-3.72,5.76c-.49.1-.34-.19-.47-.48-.36-.78-1.53-5.15-1.93-5.28ZM181.02,85.12h-6.59l-.34.39,4.77,12.22c-.09,2.15-1.09,4.65-1.18,6.73-.01.28.09.8.35.8h5.87l1.34-7.65,9.09-11.77-.12-.72h-6.35l-4.91,6.71-1.92-6.71ZM203.32,99.74c2.58-2.8,5.34-5.45,8.03-8.16.39-.39,1.07-.66,1.34-1.06.3-.45.96-3.95.96-4.58,0-.27-.12-.83-.37-.83h-14.99l-.86,4.93c.03.18.44.59.5.59h6.83l-9.45,9.37c-.32,1.55-1.33,3.91-.5,5.26h16.06l.31-.4c-.06-1.36.7-3.05.75-4.31.01-.28-.09-.8-.35-.8h-8.27ZM132.05,110.11c-1.33.41-2.68,1.09-3.66,2.1-.92.94-5.32,6.37-5.84,7.35-.2.37-.36.7-.25,1.14l.58.39,16.97-.05,6.5-7.89c.93-.99.99-2.64-.46-3.09l-13.84.05ZM155.85,121.08l-30.57,39.09c-.38.81.46,1.28,1.19,1.2,4.73-.86,11.52,1.11,15.25-2.52l36.54-46.41c.39-1.01.13-2.09-.95-2.38l-22.91.1c-1.27.45-2.52,1.07-3.47,2.05s-5.33,6.39-5.84,7.35c-.21.4-.48,1.53.09,1.53h10.67ZM185.34,120.6l-30.21,38.98c-.03.27-.01.55.23.71.7.48,5.67-.09,6.84-.14,3.14-.13,5.58.58,8.29-1.54,10.67-13.3,21.21-26.77,31.65-40.28,1.32-1.71,3.43-3.83,4.55-5.52.79-1.18.44-2.22-.85-2.75l-21.83.22c-3.66,1.02-6.14,6.63-8.86,9.13l.1,1.33,10.08-.13ZM213.39,120.6l-29.62,37.89c-.38.81.46,1.29,1.19,1.21,4.31-.64,11.07,1.01,14.41-2.16l35.46-45.1c.39-1.01.13-2.09-.95-2.38l-21.47.1c-3.55.74-6.43,6.83-8.98,9.25-.38.32.28,1.19.48,1.19h9.47ZM114.85,134.27l-30.34,41.96.25.72,36.68-25.66,19.73-25.84c.26-1.06-.39-1.96-1.5-1.98h-43.84c-2.25,3.58-2.15,7.94,1.16,10.79h17.86Z"/><path d="M144.1,53.23l-9.97,12.24c-27.2-14.92-63.07-6.81-80.9,18.44l32.94.27c7.06,1.19,10.48,8.87,6.98,15.08-4.16,5.42-9.1,10.25-13.79,15.23l4.3,4.08c12.96,15.93,2.79,38.44-16.01,43.44-6.98,1.86-14.26.61-21.39,1.15,11.24,15.59,29.21,26.05,48.34,28.38,23.2,2.83,47.25-5.9,62.12-23.95,2.54-.36,5.09-.11,7.63-.22,3.17-.14,8.3-.88,11.26-.49.33.04.41-.13.35.36-19.02,31.3-55.59,46.58-91.54,38.56-25.72-5.74-49.98-24.4-59.09-49.52-.46-1.26-2.22-6.26-2.1-7.24.03-.26.14-.47.34-.64l36.94-.22c12.09-1.01,18.34-16.29,6.67-22.97-4.92-2.82-10.35-1.78-15.77-1.97-.53-.07-.91-.51-.86-1.06l21.83-23.63-41.96-1.2c6.82-22.58,24.17-41.32,46.39-49.39,22.26-8.09,46.68-6.53,67.26,5.28Z"/><path d="M96.87,121.8c4.66-5.69,9.24-11.46,13.91-17.14,10.95-13.31,21.94-26.66,33.09-39.8,1.32-1.55,3.77-4.89,5.11-6.04.92-.78,2.14-.9,3.21-.37,1.12.55,5.95,5.09,6.5,6.21s.67,2.09.5,3.29c-.37,2.7-5.53,8.47-7.42,10.8-11.71,14.47-23.93,28.54-35.6,43.04h-19.3Z"/><path d="M114.85,134.27h-17.86c-3.31-2.85-3.4-7.22-1.16-10.8h43.84c1.11.03,1.77.92,1.5,1.98l-19.73,25.84-36.68,25.66-.25-.72,30.34-41.96Z"/><path d="M155.85,121.08h-10.67c-.57,0-.3-1.12-.09-1.53.51-.96,4.93-6.42,5.84-7.35s2.2-1.6,3.47-2.05l22.91-.1c1.08.29,1.35,1.38.95,2.38l-36.54,46.41c-3.73,3.64-10.52,1.66-15.25,2.52-.73.08-1.57-.39-1.19-1.2l30.57-39.09Z"/><path d="M185.34,120.6l-10.08.13-.1-1.33c2.71-2.5,5.2-8.1,8.86-9.13l21.83-.22c1.28.53,1.63,1.57.85,2.75-1.12,1.69-3.23,3.81-4.55,5.52-10.44,13.51-20.98,26.98-31.65,40.28-2.71,2.12-5.15,1.41-8.29,1.54-1.17.05-6.13.62-6.84.14-.24-.16-.26-.45-.23-.71l30.21-38.98Z"/><path d="M213.39,120.6h-9.47c-.2,0-.87-.87-.48-1.19,2.55-2.43,5.43-8.52,8.98-9.25l21.47-.1c1.08.29,1.35,1.38.95,2.38l-35.46,45.1c-3.34,3.17-10.1,1.52-14.41,2.16-.73.08-1.57-.4-1.19-1.21l29.62-37.89Z"/><path d="M158.37,85.12c.4.13,1.57,4.5,1.93,5.28.13.29-.02.58.47.48l3.72-5.76h6.59l.33.56-6.89,9.2,3.76,9.59c.17.26-.15.78-.32.78h-6.83c-.32-.88-1.5-5.73-2.04-5.99-.39-.19-1.11,1.63-1.51,1.84l-2.73,4.1c-.26.15-5.42.14-6.08.06-1.08-.13-.96-.45-.47-1.22,1.95-3.04,5.01-5.95,7.03-9.02l-3.66-9.18.12-.74h6.59Z"/><path d="M203.32,99.74h8.27c.26,0,.36.53.35.8-.05,1.26-.81,2.94-.75,4.31l-.31.4h-16.06c-.84-1.34.18-3.71.5-5.26l9.45-9.37h-6.83c-.06,0-.47-.41-.5-.59l.86-4.93h14.99c.25,0,.37.56.37.83,0,.62-.66,4.13-.96,4.58-.27.4-.95.67-1.34,1.06-2.69,2.71-5.44,5.35-8.03,8.16Z"/><path d="M132.05,110.11l13.84-.05c1.46.45,1.39,2.1.46,3.09l-6.5,7.89-16.97.05-.58-.39c-.11-.43.06-.77.25-1.14.52-.98,4.92-6.41,5.84-7.35.98-1.01,2.33-1.68,3.66-2.1Z"/><path d="M181.02,85.12l1.92,6.71,4.91-6.71h6.35l.12.72-9.09,11.77-1.34,7.65h-5.87c-.26,0-.36-.53-.35-.8.09-2.08,1.09-4.58,1.18-6.73l-4.77-12.22.34-.39h6.59Z"/></svg>