<?xml version="1.0" encoding="UTF-8"?><svg id="a" xmlns="http://www.w3.org/2000/svg" viewBox="0 0 211.8 165"><path d="M120.9,10.3l-10,12.2c-27.2-14.9-63.1-6.8-80.9,18.4l32.9.3c7.1,1.2,10.5,8.9,7,15.1-4.2,5.4-9.1,10.2-13.8,15.2l4.3,4.1c13,15.9,2.8,38.4-16,43.4-7,1.9-14.3.6-21.4,1.1,11.2,15.6,29.2,26,48.3,28.4,23.2,2.8,47.3-5.9,62.1-24,2.5-.4,5.1-.1,7.6-.2s8.3-.9,11.3-.5.4-.1.4.4c-19,31.3-55.6,46.6-91.5,38.6-25.7-5.7-50-24.4-59.1-49.5-.5-1.3-2.2-6.3-2.1-7.2s.1-.5.3-.6l36.9-.2c12.1-1,18.3-16.3,6.7-23s-10.3-1.8-15.8-2c-.5,0-.9-.5-.9-1.1l21.8-23.6-42-1.2C14,31.9,31.4,13.1,53.6,5c22.3-8.1,46.7-6.5,67.3,5.3Z"/><path d="M73.6,78.9c4.7-5.7,9.2-11.5,13.9-17.1,10.9-13.3,21.9-26.7,33.1-39.8,1.3-1.6,3.8-4.9,5.1-6s2.1-.9,3.2-.4,5.9,5.1,6.5,6.2.7,2.1.5,3.3c-.4,2.7-5.5,8.5-7.4,10.8-11.7,14.5-23.9,28.5-35.6,43h-19.3Z"/><path d="M91.6,91.4h-17.9c-3.3-2.9-3.4-7.2-1.2-10.8h43.8c1.1,0,1.8.9,1.5,2l-19.7,25.8-36.7,25.7-.3-.7,30.3-42Z"/><path d="M132.6,78.2h-10.7c-.6,0-.3-1.1,0-1.5.5-1,4.9-6.4,5.8-7.3s2.2-1.6,3.5-2h22.9c1.1.2,1.3,1.3,1,2.3l-36.5,46.4c-3.7,3.6-10.5,1.7-15.2,2.5-.7,0-1.6-.4-1.2-1.2l30.6-39.1Z"/><path d="M162.1,77.7h-10.1c0,.1-.1-1.2-.1-1.2,2.7-2.5,5.2-8.1,8.9-9.1l21.8-.2c1.3.5,1.6,1.6.8,2.8-1.1,1.7-3.2,3.8-4.5,5.5-10.4,13.5-21,27-31.6,40.3-2.7,2.1-5.2,1.4-8.3,1.5s-6.1.6-6.8.1-.3-.4-.2-.7l30.2-39Z"/><path d="M190.1,77.7h-9.5c-.2,0-.9-.9-.5-1.2,2.6-2.4,5.4-8.5,9-9.3h21.5c1.1.2,1.3,1.3,1,2.3l-35.5,45.1c-3.3,3.2-10.1,1.5-14.4,2.2-.7,0-1.6-.4-1.2-1.2l29.6-37.9Z"/><path d="M135.1,42.2c.4.1,1.6,4.5,1.9,5.3s0,.6.5.5l3.7-5.8h6.6l.3.6-6.9,9.2,3.8,9.6c.2.3-.2.8-.3.8h-6.8c-.3-.9-1.5-5.7-2-6s-1.1,1.6-1.5,1.8l-2.7,4.1c-.3.2-5.4.1-6.1,0-1.1-.1-1-.5-.5-1.2,1.9-3,5-6,7-9l-3.7-9.2v-.7h6.7Z"/><path d="M180.1,56.8h8.3c.3,0,.4.5.3.8,0,1.3-.8,2.9-.8,4.3l-.3.4h-16.1c-.8-1.3.2-3.7.5-5.3l9.5-9.4h-6.8c0,0-.5-.4-.5-.6l.9-4.9h15c.2,0,.4.6.4.8,0,.6-.7,4.1-1,4.6s-1,.7-1.3,1.1c-2.7,2.7-5.4,5.4-8,8.2Z"/><path d="M108.8,67.2h13.8c1.5.4,1.4,2.1.5,3l-6.5,7.9h-17s-.6-.3-.6-.3c-.1-.4,0-.8.3-1.1.5-1,4.9-6.4,5.8-7.3s2.3-1.7,3.7-2.1Z"/><path d="M157.8,42.2l1.9,6.7,4.9-6.7h6.4v.7c.1,0-9,11.8-9,11.8l-1.3,7.7h-5.9c-.3,0-.4-.5-.3-.8,0-2.1,1.1-4.6,1.2-6.7l-4.8-12.2.3-.4h6.6Z"/></svg>